<svg width="16" height="15" viewBox="0 0 16 15" fill="none" xmlns="http://www.w3.org/2000/svg">
<path d="M11.8421 11.0526H10.6113L2.95342 2.62657C2.8794 2.54521 2.78919 2.48023 2.68859 2.43577C2.58798 2.39131 2.4792 2.36837 2.36921 2.36841H0V3.94736H2.02026L5.24921 7.49999L2.02026 11.0534H0V12.6324H2.36921C2.4792 12.6324 2.58798 12.6095 2.68859 12.565C2.78919 12.5205 2.8794 12.4555 2.95342 12.3742L6.31579 8.67393L9.67816 12.3734C9.75218 12.4548 9.84239 12.5197 9.94299 12.5642C10.0436 12.6087 10.1524 12.6316 10.2624 12.6316H11.8421V15L15.7895 11.8421L11.8421 8.6842V11.0526V11.0526Z" fill="#8A8A8A"/>
<path d="M10.6113 3.94737H11.8421V6.31579L15.7894 3.20684L11.8421 0V2.36842H10.2623C10.1523 2.36838 10.0435 2.39133 9.94295 2.43578C9.84234 2.48024 9.75214 2.54523 9.67811 2.62658L7.01917 5.55316L8.18759 6.61579L10.6113 3.94737Z" fill="#8A8A8A"/>
</svg>
