<svg width="39" height="39" viewBox="0 0 39 39" fill="none" xmlns="http://www.w3.org/2000/svg">
<path d="M26.8125 4.875H34.125V9.75H36.5625V12.1875H29.25V14.625H26.8125V17.0625H29.25V24.375H26.8125V26.8125H19.5V24.375H17.0625V17.0625H19.5V14.625H17.0625V12.1875H12.1875V17.0625H2.4375V31.6875H17.0625V29.25H29.25V31.6875H36.5625V12.1875H39V34.125H0V9.75H26.8125V4.875Z" fill="#161616"/>
<path d="M14.625 14.625H17.0625V17.0625H14.625V14.625Z" fill="#1A1A1A"/>
<path d="M29.25 14.625H31.6875V17.0625H29.25V14.625Z" fill="#1A1A1A"/>
<path d="M12.1875 17.0625H14.625V26.8125H12.1875V17.0625Z" fill="#1A1A1A"/>
<path d="M31.6875 17.0625H34.125V26.8125H31.6875V17.0625Z" fill="#1A1A1A"/>
<path d="M14.625 26.8125H17.0625V29.25H14.625V26.8125Z" fill="#1A1A1A"/>
<path d="M29.25 26.8125H31.6875V29.25H29.25V26.8125Z" fill="#1A1A1A"/>
</svg>
