<svg width="53" height="53" viewBox="0 0 53 53" fill="none" xmlns="http://www.w3.org/2000/svg">
<path d="M0 0H6.625V29.8125H0V0Z" fill="#DFFF19"/>
<path d="M6.625 0H46.375V29.8125H53V53H0V29.8125H6.625V0Z" fill="#161616"/>
<path d="M46.375 0H53V29.8125H46.375V0Z" fill="#DFFF19"/>
<path d="M9.9375 3.3125H43.0625V29.8125H9.9375V3.3125Z" fill="#DFFF19"/>
<path d="M13.25 6.625H39.75V26.5H13.25V6.625Z" fill="#161616"/>
<path d="M16.5625 9.9375H19.875V16.5625H16.5625V9.9375Z" fill="#DFFF19"/>
<path d="M16.5625 19.875H19.875V23.1875H16.5625V19.875Z" fill="#DFFF19"/>
<path d="M3.3125 33.125H49.6875V46.375H46.375V43.0625H43.0625V46.375H39.75V43.0625H36.4375V46.375H33.125V43.0625H29.8125V46.375H26.5V43.0625H23.1875V46.375H19.875V43.0625H16.5625V46.375H13.25V43.0625H9.9375V46.375H6.625V43.0625H3.3125V33.125Z" fill="#DFFF19"/>
<path d="M33.125 36.4375H46.375V39.75H33.125V36.4375Z" fill="#161616"/>
</svg>
