<svg width="16" height="10" viewBox="0 0 16 10" fill="none" xmlns="http://www.w3.org/2000/svg">
<path d="M0.363642 10C0.267198 10 0.174704 9.9561 0.106508 9.87796C0.0383122 9.79982 0 9.69384 0 9.58333V0.416598C1.08187e-05 0.344193 0.0164878 0.273041 0.0478068 0.210155C0.0791259 0.147269 0.124206 0.0948198 0.178604 0.0579768C0.233001 0.0211337 0.294839 0.00116869 0.358022 4.97681e-05C0.421205 -0.00106916 0.483551 0.0166966 0.538917 0.0515958L7.81175 4.63496C7.86876 4.67093 7.91631 4.72377 7.94942 4.78798C7.98253 4.85218 8 4.92539 8 4.99996C8 5.07454 7.98253 5.14775 7.94942 5.21195C7.91631 5.27616 7.86876 5.329 7.81175 5.36497L0.538917 9.94833C0.485225 9.9822 0.424933 9.99998 0.363642 10Z" fill="#8A8A8A"/>
<path d="M8.36364 10C8.2672 10 8.1747 9.9561 8.10651 9.87796C8.03831 9.79982 8 9.69384 8 9.58333V0.416598C8.00001 0.344193 8.01649 0.273041 8.04781 0.210155C8.07913 0.147269 8.12421 0.0948198 8.1786 0.0579768C8.233 0.0211337 8.29484 0.00116869 8.35802 4.97681e-05C8.4212 -0.00106916 8.48355 0.0166966 8.53892 0.0515958L15.8117 4.63496C15.8688 4.67093 15.9163 4.72377 15.9494 4.78798C15.9825 4.85218 16 4.92539 16 4.99996C16 5.07454 15.9825 5.14775 15.9494 5.21195C15.9163 5.27616 15.8688 5.329 15.8117 5.36497L8.53892 9.94833C8.48523 9.9822 8.42493 9.99998 8.36364 10Z" fill="#8A8A8A"/>
</svg>
