<svg width="16" height="18" viewBox="0 0 16 18" fill="none" xmlns="http://www.w3.org/2000/svg">
<path d="M0.727283 18C0.534396 18 0.349408 17.921 0.213016 17.7803C0.0766244 17.6397 0 17.4489 0 17.25V0.749877C2.16374e-05 0.619548 0.0329755 0.491474 0.0956136 0.378279C0.158252 0.265084 0.248412 0.170676 0.357207 0.104358C0.466003 0.0380407 0.589678 0.00210365 0.716044 8.95825e-05C0.842409 -0.00192448 0.967102 0.0300539 1.07783 0.0928725L15.6235 8.34293C15.7375 8.40768 15.8326 8.50279 15.8988 8.61836C15.9651 8.73392 16 8.8657 16 8.99994C16 9.13417 15.9651 9.26595 15.8988 9.38152C15.8326 9.49708 15.7375 9.5922 15.6235 9.65694L1.07783 17.907C0.970451 17.968 0.849866 18 0.727283 18Z" fill="#8A8A8A"/>
</svg>
