<svg width="18" height="15" viewBox="0 0 18 15" fill="none" xmlns="http://www.w3.org/2000/svg">
<path d="M6.66 6.00852H17.46C17.559 6.00852 17.64 5.93182 17.64 5.83807V4.64489C17.64 4.55114 17.559 4.47443 17.46 4.47443H6.66C6.561 4.47443 6.48 4.55114 6.48 4.64489V5.83807C6.48 5.93182 6.561 6.00852 6.66 6.00852ZM6.48 10.3551C6.48 10.4489 6.561 10.5256 6.66 10.5256H17.46C17.559 10.5256 17.64 10.4489 17.64 10.3551V9.16193C17.64 9.06818 17.559 8.99148 17.46 8.99148H6.66C6.561 8.99148 6.48 9.06818 6.48 9.16193V10.3551ZM17.82 0H0.18C0.081 0 0 0.0767045 0 0.170455V1.36364C0 1.45739 0.081 1.53409 0.18 1.53409H17.82C17.919 1.53409 18 1.45739 18 1.36364V0.170455C18 0.0767045 17.919 0 17.82 0ZM17.82 13.4659H0.18C0.081 13.4659 0 13.5426 0 13.6364V14.8295C0 14.9233 0.081 15 0.18 15H17.82C17.919 15 18 14.9233 18 14.8295V13.6364C18 13.5426 17.919 13.4659 17.82 13.4659ZM0.684 10.272L4.20075 7.64915C4.22443 7.63152 4.24357 7.60904 4.25673 7.58338C4.2699 7.55773 4.27674 7.52959 4.27674 7.50107C4.27674 7.47255 4.2699 7.4444 4.25673 7.41875C4.24357 7.39309 4.22443 7.37061 4.20075 7.35298L0.684 4.72798C0.5535 4.62997 0.36 4.71733 0.36 4.875V10.1229C0.359988 10.1585 0.370551 10.1933 0.390481 10.2235C0.410411 10.2537 0.438904 10.2779 0.472702 10.2935C0.5065 10.309 0.54424 10.3153 0.581605 10.3115C0.618971 10.3077 0.654455 10.294 0.684 10.272V10.272Z" fill="#8A8A8A"/>
</svg>
