<svg width="16" height="10" viewBox="0 0 16 10" fill="none" xmlns="http://www.w3.org/2000/svg">
<path d="M15.6364 10C15.7328 10 15.8253 9.9561 15.8935 9.87796C15.9617 9.79982 16 9.69384 16 9.58333V0.416598C16 0.344193 15.9835 0.273041 15.9522 0.210155C15.9209 0.147269 15.8758 0.0948198 15.8214 0.0579768C15.767 0.0211337 15.7052 0.00116869 15.642 4.97681e-05C15.5788 -0.00106916 15.5164 0.0166966 15.4611 0.0515958L8.18825 4.63496C8.13124 4.67093 8.08369 4.72377 8.05058 4.78798C8.01747 4.85218 8 4.92539 8 4.99996C8 5.07454 8.01747 5.14775 8.05058 5.21195C8.08369 5.27616 8.13124 5.329 8.18825 5.36497L15.4611 9.94833C15.5148 9.9822 15.5751 9.99998 15.6364 10Z" fill="#8A8A8A"/>
<path d="M7.63636 10C7.7328 10 7.8253 9.9561 7.89349 9.87796C7.96169 9.79982 8 9.69384 8 9.58333V0.416598C7.99999 0.344193 7.98351 0.273041 7.95219 0.210155C7.92087 0.147269 7.87579 0.0948198 7.8214 0.0579768C7.767 0.0211337 7.70516 0.00116869 7.64198 4.97681e-05C7.5788 -0.00106916 7.51645 0.0166966 7.46108 0.0515958L0.188253 4.63496C0.131239 4.67093 0.0836947 4.72377 0.0505816 4.78798C0.0174684 4.85218 4.49459e-08 4.92539 4.49459e-08 4.99996C4.49459e-08 5.07454 0.0174684 5.14775 0.0505816 5.21195C0.0836947 5.27616 0.131239 5.329 0.188253 5.36497L7.46108 9.94833C7.51477 9.9822 7.57507 9.99998 7.63636 10Z" fill="#8A8A8A"/>
</svg>
