<svg width="153" height="26" viewBox="0 0 153 26" fill="none" xmlns="http://www.w3.org/2000/svg">
<path d="M8.712 0.835998L15.66 13.4L8.712 26H0.684L7.632 13.364L0.684 0.835998H8.712ZM24.84 13.364L31.968 26H23.76L16.632 13.4L23.76 0.835998H31.968L24.84 13.364Z" fill="#DFFF1A"/>
<path d="M61.929 0.727999V5.768L54.657 15.38H46.053L52.029 7.568H41.949V26H35.145V0.727999H61.929ZM91.9524 0.727999V5.768L84.6804 15.38H76.0764L82.0524 7.568H71.9724V26H65.1684V0.727999H91.9524ZM123.416 26H114.632L106.064 15.524L112.04 7.676H101.96V26H95.1559V0.835998H121.94V5.84L114.668 15.344L123.416 26ZM152.833 19.412V26H126.157V13.472L145.813 8.216V7.208H126.301V0.835998H152.617V13.076L132.961 18.368V19.412H152.833Z" fill="#FCFCFC"/>
</svg>
