<svg width="62" height="62" viewBox="0 0 62 62" fill="none" xmlns="http://www.w3.org/2000/svg">
<path d="M23.25 0H31V11.625H19.375V7.75H23.25V0Z" fill="#161616"/>
<path d="M15.5 11.625H19.375V15.5H15.5V11.625Z" fill="#161616"/>
<path d="M31 11.625H34.875V15.5H31V11.625Z" fill="#161616"/>
<path d="M54.25 11.625H58.125V15.5H54.25V11.625Z" fill="#161616"/>
<path d="M11.625 15.5H15.5V27.125H11.625V15.5Z" fill="#161616"/>
<path d="M19.375 15.5H23.25V19.375H19.375V15.5Z" fill="#161616"/>
<path d="M27.125 15.5H31V19.375H27.125V15.5Z" fill="#161616"/>
<path d="M34.875 15.5H38.75V27.125H34.875V15.5Z" fill="#161616"/>
<path d="M50.375 15.5H54.25V19.375H58.125V23.25H54.25V27.125H46.5V19.375H50.375V15.5Z" fill="#161616"/>
<path d="M58.125 15.5H62V19.375H58.125V15.5Z" fill="#161616"/>
<path d="M23.25 23.25H27.125V27.125H34.875V31H15.5V27.125H23.25V23.25Z" fill="#161616"/>
<path d="M7.75 27.125H11.625V31H7.75V27.125Z" fill="#161616"/>
<path d="M38.75 27.125H46.5V34.875H38.75V27.125Z" fill="#161616"/>
<path d="M3.875 31H7.75V34.875H3.875V31Z" fill="#161616"/>
<path d="M0 34.875H3.875V50.375H0V34.875Z" fill="#161616"/>
<path d="M34.875 34.875H38.75V38.75H34.875V34.875Z" fill="#161616"/>
<path d="M46.5 34.875H50.375V50.375H46.5V34.875Z" fill="#161616"/>
<path d="M23.25 38.75H27.125V42.625H23.25V38.75Z" fill="#161616"/>
<path d="M23.25 46.5H27.125V50.375H23.25V46.5Z" fill="#161616"/>
<path d="M3.875 50.375H7.75V54.25H3.875V50.375Z" fill="#161616"/>
<path d="M42.625 50.375H46.5V54.25H42.625V50.375Z" fill="#161616"/>
<path d="M7.75 54.25H42.625V58.125H7.75V54.25Z" fill="#161616"/>
</svg>
