<svg width="144" height="144" viewBox="0 0 144 144" fill="none" xmlns="http://www.w3.org/2000/svg">
<path d="M71.75 0C32.1273 0 0 32.1273 0 71.75C0 111.373 32.1273 143.5 71.75 143.5C111.373 143.5 143.5 111.373 143.5 71.75C143.5 32.1273 111.373 0 71.75 0ZM71.75 131.328C38.8539 131.328 12.1719 104.646 12.1719 71.75C12.1719 38.8539 38.8539 12.1719 71.75 12.1719C104.646 12.1719 131.328 38.8539 131.328 71.75C131.328 104.646 104.646 131.328 71.75 131.328Z" fill="#DFFF19"/>
<path d="M98.0317 70.677L63.0535 45.2442C62.8621 45.1052 62.6358 45.0219 62.3999 45.0036C62.164 44.9853 61.9277 45.0327 61.717 45.1405C61.5064 45.2483 61.3297 45.4123 61.2066 45.6143C61.0835 45.8164 61.0188 46.0486 61.0195 46.2852V97.1509C61.0199 97.387 61.0854 97.6185 61.2087 97.8198C61.3321 98.0212 61.5086 98.1846 61.7188 98.2922C61.929 98.3998 62.1648 98.4473 62.4003 98.4296C62.6357 98.4119 62.8618 98.3297 63.0535 98.1919L98.0317 72.743C98.1969 72.6262 98.3317 72.4714 98.4247 72.2916C98.5178 72.1119 98.5663 71.9124 98.5663 71.71C98.5663 71.5076 98.5178 71.3082 98.4247 71.1284C98.3317 70.9487 98.1969 70.7939 98.0317 70.677V70.677Z" fill="#DFFF19"/>
</svg>
